<?xml version="1.0" encoding="UTF-8"?>
<!DOCTYPE svg PUBLIC "-//W3C//DTD SVG 1.1//EN" "http://www.w3.org/Graphics/SVG/1.1/DTD/svg11.dtd">
<!-- Creator: CorelDRAW 2018 (64-Bit) -->
<svg xmlns="http://www.w3.org/2000/svg" xml:space="preserve" width="209px" height="265px" version="1.1" style="shape-rendering:geometricPrecision; text-rendering:geometricPrecision; image-rendering:optimizeQuality; fill-rule:evenodd; clip-rule:evenodd"
viewBox="0 0 59.146 75.162"
 xmlns:xlink="http://www.w3.org/1999/xlink">
 <defs>
  <style type="text/css">
   <![CDATA[
    .fil1 {fill:#FEFEFE}
    .fil0 {fill:#E85354}
   ]]>
  </style>
 </defs>
 <g id="Layer_x0020_1">
  <metadata id="CorelCorpID_0Corel-Layer"/>
  <g id="_2636557137088">
   <path class="fil0" d="M50.393 35.335l0.73 -2.724c3.936,-14.69 -4.395,-27.81 -15.534,-31.374 -13.087,-4.186 -29.468,2.099 -32.972,21.204l-2.617 19.769 8.753 -1.208 4.008 14.958c3.612,13.477 17.774,13.881 22.799,10.98l12.293 8.222 -4.395 -13.948 15.688 -27.087 -8.753 1.208z"/>
   <path class="fil1" d="M27.833 47.931l2.028 -0.338 -1.059 3.953 -0.969 -3.615zm11.091 6.454l4.864 -18.151 -18.418 2.506 -3.613 -13.45c-0.126,-0.534 -0.192,-1.09 -0.192,-1.662 0,-3.989 3.233,-7.223 7.222,-7.223 3.632,0 6.62,2.666 7.141,6.133l-6.324 0.93 2.244 9.107 13.409 -1.825c4.276,-12.467 -4.007,-24.902 -17.409,-25.367 -11.523,-0.4 -19.377,10.904 -17.353,18.459l8.403 31.811c1.149,4.388 5.141,7.626 9.889,7.626 5.646,0 8.542,-2.943 10.137,-8.894z"/>
   <polygon class="fil0" points="22.157,39.168 24.372,48.507 29.41,47.668 28.339,49.733 22.49,50.711 19.394,37.332 26.644,36.373 26.791,38.538 "/>
  </g>
 </g>
</svg>
