<?xml version="1.0" encoding="UTF-8"?>
<!DOCTYPE svg PUBLIC "-//W3C//DTD SVG 1.1//EN" "http://www.w3.org/Graphics/SVG/1.1/DTD/svg11.dtd">
<!-- Creator: CorelDRAW 2018 (64-Bit) -->
<svg xmlns="http://www.w3.org/2000/svg" xml:space="preserve" width="276px" height="121px" version="1.1" style="shape-rendering:geometricPrecision; text-rendering:geometricPrecision; image-rendering:optimizeQuality; fill-rule:evenodd; clip-rule:evenodd"
viewBox="0 0 378.728 165.651"
 xmlns:xlink="http://www.w3.org/1999/xlink">
 <defs>
  <style type="text/css">
   <![CDATA[
    .fil0 {fill:#FEFEFE;fill-rule:nonzero}
   ]]>
  </style>
 </defs>
 <g id="Layer_x0020_1">
  <metadata id="CorelCorpID_0Corel-Layer"/>
  <path class="fil0" d="M44.164 50.524l36.031 -4.341 0.817 9.029 0.031 0.311c0.299,3.922 -0.261,7.763 -1.681,11.523 -1.422,3.774 -3.615,7.198 -6.552,10.274 -2.952,3.076 -6.634,5.683 -11.029,7.839 -4.396,2.14 -9.406,3.557 -15.029,4.242 -6.527,0.779 -12.45,0.828 -17.789,0.147 -5.339,-0.682 -9.97,-2.08 -13.899,-4.226 -3.913,-2.131 -7.077,-4.977 -9.461,-8.573 -2.371,-3.579 -3.873,-7.906 -4.478,-12.952l-0.858 -7.013c-0.605,-5.076 -0.182,-9.657 1.28,-13.713 1.462,-4.071 3.832,-7.601 7.125,-10.605 3.293,-3.004 7.466,-5.467 12.501,-7.376 5.035,-1.922 10.83,-3.274 17.37,-4.07 5.165,-0.62 9.949,-0.645 14.368,-0.089 4.403,0.571 8.338,1.709 11.832,3.444 3.481,1.733 6.478,4.048 9.005,6.931 2.512,2.883 4.466,6.348 5.863,10.41l-26.873 3.243c-0.985,-2.628 -2.466,-4.571 -4.462,-5.873 -1.98,-1.287 -4.606,-1.725 -7.847,-1.343 -1.376,0.175 -2.869,0.587 -4.478,1.238 -1.609,0.664 -3.053,1.624 -4.345,2.864 -1.293,1.255 -2.319,2.804 -3.073,4.647 -0.755,1.858 -0.973,4.037 -0.673,6.566l0.939 7.755c0.318,2.575 1.06,4.686 2.273,6.321 1.199,1.634 2.573,2.883 4.134,3.758 1.564,0.876 3.197,1.44 4.888,1.707 1.691,0.254 3.172,0.315 4.475,0.156 1.969,-0.238 3.698,-0.623 5.161,-1.169 1.461,-0.545 2.7,-1.191 3.701,-1.955 1.001,-0.764 1.763,-1.63 2.318,-2.597 0.556,-0.968 0.917,-2.007 1.071,-3.135l-10.891 1.305 -1.765 -14.68 0 0z"/>
  <path id="_1" class="fil0" d="M154.002 33.744c0.238,1.984 0.18,3.791 -0.193,5.424 -0.371,1.632 -0.995,3.119 -1.873,4.46 -0.862,1.34 -1.949,2.548 -3.244,3.64 -1.293,1.092 -2.752,2.081 -4.359,2.969 1.099,0.42 2.096,0.916 2.973,1.457 0.879,0.556 1.685,1.201 2.416,1.934 0.732,0.751 1.391,1.604 1.962,2.577 0.586,0.988 1.158,2.094 1.716,3.333l1.621 4.401c0.937,2.155 1.961,4.161 3.086,6.004 1.127,1.841 2.265,3.342 3.43,4.518l-29.313 3.53c-0.359,-0.337 -0.763,-0.778 -1.211,-1.338 -0.449,-0.56 -0.914,-1.192 -1.393,-1.929 -0.481,-0.722 -0.947,-1.532 -1.413,-2.432 -0.452,-0.886 -0.874,-1.815 -1.252,-2.789l-2.061 -5.567c-0.349,-0.917 -0.754,-1.683 -1.218,-2.316 -0.466,-0.634 -1.048,-1.132 -1.731,-1.496 -0.685,-0.364 -1.487,-0.624 -2.392,-0.78 -0.905,-0.155 -1.972,-0.221 -3.186,-0.181l-9.337 1.128 2.465 20.435 -27.686 3.34 -7.855 -65.169 46.493 -5.612c4.529,-0.543 8.735,-0.577 12.604,-0.12 3.869,0.473 7.271,1.45 10.186,2.967 2.917,1.518 5.288,3.541 7.101,6.074 1.828,2.532 2.949,5.605 3.394,9.215l0.271 2.322 -0.001 0.001zm-28.478 0.724c-0.096,-0.917 -0.355,-1.67 -0.73,-2.274 -0.375,-0.59 -0.794,-1.06 -1.271,-1.381 -0.491,-0.337 -0.966,-0.57 -1.457,-0.685 -0.504,-0.115 -0.92,-0.156 -1.259,-0.108l-17.136 2.066 1.304 10.804 17.003 -2.052c0.369,-0.047 0.798,-0.169 1.255,-0.395 0.472,-0.212 0.9,-0.541 1.31,-0.989 0.397,-0.432 0.703,-1.013 0.919,-1.727 0.216,-0.712 0.269,-1.556 0.158,-2.563l-0.096 -0.695 0 -0.001z"/>
  <polygon id="_2" class="fil0" points="162.844,74.871 154.987,9.703 182.748,6.348 190.603,71.532 "/>
  <path id="_3" class="fil0" d="M266.765 22.213c0.445,3.772 0.133,7.168 -0.953,10.212 -1.101,3.046 -2.782,5.681 -5.074,7.908 -2.294,2.225 -5.108,4.025 -8.413,5.416 -3.306,1.39 -6.958,2.324 -10.954,2.802l-21.307 2.575 2.034 16.826 -27.685 3.338 -7.855 -65.169 47.574 -5.74c4.276,-0.509 8.275,-0.512 12.013,0.019 3.722,0.533 7.019,1.542 9.86,3.074 2.856,1.517 5.169,3.497 6.967,5.941 1.798,2.46 2.888,5.354 3.302,8.713l0.493 4.084 -0.002 0.001zm-28.432 1.078c-0.142,-1.184 -0.431,-2.116 -0.851,-2.823 -0.421,-0.707 -0.9,-1.236 -1.45,-1.603 -0.566,-0.35 -1.131,-0.568 -1.739,-0.636 -0.608,-0.07 -1.156,-0.08 -1.644,-0.017l-16.278 1.957 1.639 13.597 15.982 -1.923c0.339,-0.033 0.797,-0.199 1.358,-0.485 0.56,-0.286 1.105,-0.705 1.619,-1.244 0.513,-0.551 0.938,-1.236 1.272,-2.055 0.349,-0.831 0.444,-1.795 0.316,-2.92l-0.223 -1.849 -0.001 0.001z"/>
  <polygon id="_4" class="fil0" points="55.573,114.56 61.329,162.312 33.524,165.651 27.768,117.914 5.128,120.65 3.029,103.217 76.114,94.394 78.228,111.84 "/>
  <path id="_5" class="fil0" d="M69.825 125.117c-0.604,-5.076 -0.182,-9.656 1.28,-13.713 1.462,-4.071 3.833,-7.601 7.126,-10.605 3.293,-3.004 7.465,-5.467 12.499,-7.376 5.036,-1.922 10.831,-3.274 17.372,-4.068 6.51,-0.78 12.45,-0.829 17.802,-0.133 5.353,0.697 10.001,2.125 13.93,4.285 3.928,2.159 7.077,5.037 9.462,8.616 2.384,3.595 3.886,7.879 4.475,12.879l0.859 7.015c0.588,4.957 0.152,9.463 -1.326,13.52 -1.477,4.056 -3.862,7.585 -7.17,10.605 -3.307,3.02 -7.479,5.514 -12.514,7.465 -5.035,1.968 -10.8,3.334 -17.311,4.128 -6.556,0.78 -12.494,0.844 -17.833,0.177 -5.322,-0.667 -9.956,-2.066 -13.869,-4.211 -3.898,-2.13 -7.047,-4.993 -9.432,-8.587 -2.386,-3.61 -3.888,-7.936 -4.491,-12.983l-0.859 -7.013 0 -0.001zm44.37 15.127c1.287,-0.144 2.706,-0.541 4.257,-1.161 1.534,-0.62 2.95,-1.52 4.257,-2.702 1.296,-1.165 2.334,-2.641 3.089,-4.41 0.756,-1.769 0.992,-3.873 0.705,-6.301l-0.923 -7.576c-0.286,-2.471 -1.014,-4.48 -2.182,-6.025 -1.168,-1.561 -2.511,-2.734 -4.059,-3.552 -1.532,-0.831 -3.122,-1.351 -4.767,-1.575 -1.646,-0.222 -3.113,-0.256 -4.401,-0.096 -1.286,0.158 -2.706,0.54 -4.256,1.16 -1.536,0.621 -2.951,1.52 -4.243,2.672 -1.28,1.165 -2.304,2.641 -3.06,4.409 -0.771,1.784 -1.005,3.905 -0.703,6.331l0.951 7.576c0.207,1.643 0.602,3.062 1.191,4.271 0.602,1.21 1.321,2.256 2.173,3.122 0.851,0.868 1.791,1.586 2.832,2.125 1.042,0.539 2.097,0.961 3.165,1.262 1.069,0.288 2.122,0.473 3.146,0.537 1.023,0.066 1.97,0.044 2.829,-0.067l-0.001 0z"/>
  <path id="_6" class="fil0" d="M146.621 116.403c-0.604,-5.076 -0.184,-9.656 1.279,-13.711 1.462,-4.071 3.834,-7.601 7.126,-10.605 3.293,-3.006 7.465,-5.469 12.5,-7.376 5.036,-1.924 10.83,-3.275 17.37,-4.07 6.512,-0.779 12.452,-0.828 17.804,-0.131 5.352,0.695 10.001,2.124 13.929,4.283 3.928,2.16 7.077,5.037 9.463,8.616 2.385,3.595 3.885,7.878 4.474,12.88l0.859 7.015c0.589,4.956 0.152,9.462 -1.325,13.518 -1.478,4.057 -3.863,7.587 -7.171,10.606 -3.307,3.019 -7.479,5.512 -12.513,7.465 -5.035,1.968 -10.801,3.333 -17.311,4.127 -6.556,0.781 -12.495,0.845 -17.833,0.177 -5.323,-0.667 -9.956,-2.065 -13.869,-4.209 -3.899,-2.132 -7.048,-4.993 -9.433,-8.588 -2.385,-3.609 -3.887,-7.937 -4.491,-12.982l-0.859 -7.015 0.001 0zm44.37 15.127c1.287,-0.143 2.705,-0.54 4.255,-1.16 1.536,-0.62 2.951,-1.521 4.258,-2.703 1.294,-1.165 2.334,-2.639 3.089,-4.409 0.756,-1.769 0.99,-3.875 0.704,-6.301l-0.922 -7.576c-0.286,-2.471 -1.014,-4.48 -2.182,-6.026 -1.168,-1.56 -2.511,-2.734 -4.059,-3.55 -1.532,-0.833 -3.122,-1.353 -4.768,-1.576 -1.645,-0.223 -3.112,-0.256 -4.4,-0.097 -1.287,0.159 -2.706,0.541 -4.256,1.161 -1.535,0.62 -2.951,1.522 -4.243,2.673 -1.28,1.165 -2.304,2.64 -3.06,4.409 -0.77,1.784 -1.005,3.904 -0.704,6.331l0.952 7.575c0.207,1.643 0.602,3.061 1.191,4.272 0.602,1.209 1.321,2.255 2.173,3.122 0.851,0.867 1.791,1.586 2.832,2.125 1.042,0.538 2.096,0.96 3.165,1.263 1.069,0.286 2.122,0.47 3.146,0.536 1.023,0.066 1.97,0.043 2.829,-0.068l0 -0.001z"/>
  <polygon id="_7" class="fil0" points="285.247,136.833 253.132,107.77 253.866,110.654 257.946,140.125 231.517,143.306 223.662,78.137 248.804,75.101 282.085,105.635 281.352,102.753 277.081,71.697 303.51,68.517 311.38,133.685 "/>
  <path id="_8" class="fil0" d="M378.553 106.286c0.873,7.117 -1.509,12.795 -7.178,17.017 -5.652,4.239 -14.56,7.084 -26.694,8.546 -6.024,0.731 -11.416,0.746 -16.16,0.045 -4.73,-0.688 -8.769,-1.928 -12.104,-3.737 -3.332,-1.795 -5.957,-4.039 -7.875,-6.749 -1.903,-2.71 -3.07,-5.737 -3.467,-9.066l26.339 -3.18c0.245,1.05 0.579,2.01 0.986,2.866 0.406,0.84 1.02,1.562 1.825,2.133 0.819,0.571 1.919,0.961 3.312,1.172 1.394,0.209 3.202,0.181 5.451,-0.089 1.953,-0.238 3.446,-0.548 4.51,-0.943 1.063,-0.378 1.83,-0.799 2.3,-1.247 0.47,-0.464 0.733,-0.911 0.789,-1.355 0.07,-0.444 0.081,-0.846 0.034,-1.216 -0.047,-0.428 -0.139,-0.827 -0.276,-1.167 -0.122,-0.353 -0.361,-0.664 -0.675,-0.957 -0.329,-0.278 -0.804,-0.511 -1.428,-0.714 -0.623,-0.203 -1.439,-0.374 -2.433,-0.513l-19.741 -1.422c-4.016,-0.277 -7.385,-0.917 -10.103,-1.901 -2.704,-1 -4.922,-2.286 -6.623,-3.841 -1.702,-1.557 -2.977,-3.353 -3.836,-5.391 -0.847,-2.036 -1.428,-4.224 -1.715,-6.576 -0.192,-1.702 -0.19,-3.405 0.047,-5.125 0.223,-1.706 0.772,-3.385 1.618,-5.021 0.86,-1.622 2.062,-3.186 3.636,-4.666 1.571,-1.494 3.56,-2.844 5.993,-4.093 2.419,-1.235 5.329,-2.325 8.727,-3.271 3.4,-0.947 7.362,-1.706 11.891,-2.247 6.17,-0.747 11.562,-0.776 16.144,-0.102 4.597,0.657 8.459,1.868 11.598,3.621 3.14,1.736 5.573,3.924 7.299,6.545 1.724,2.608 2.829,5.503 3.3,8.684l-24.46 2.942c-0.334,-0.946 -0.756,-1.802 -1.236,-2.554 -0.495,-0.75 -1.167,-1.367 -2.014,-1.834 -0.863,-0.467 -1.947,-0.768 -3.281,-0.905 -1.32,-0.153 -3.008,-0.109 -5.051,0.145 -1.346,0.159 -2.425,0.406 -3.252,0.738 -0.812,0.333 -1.446,0.693 -1.872,1.097 -0.427,0.402 -0.703,0.835 -0.833,1.28 -0.115,0.46 -0.156,0.875 -0.109,1.275 0.063,0.458 0.171,0.887 0.351,1.27 0.182,0.384 0.496,0.737 0.943,1.03 0.431,0.293 1.054,0.554 1.827,0.755 0.787,0.216 1.796,0.386 3.026,0.494l14.733 1.107c4.713,0.302 8.658,0.862 11.79,1.695 3.146,0.833 5.703,1.953 7.655,3.358 1.967,1.406 3.418,3.112 4.382,5.104 0.95,2.006 1.591,4.312 1.91,6.961l0 0.002z"/>
 </g>
</svg>
