<?xml version="1.0" encoding="UTF-8"?>
<!DOCTYPE svg PUBLIC "-//W3C//DTD SVG 1.1//EN" "http://www.w3.org/Graphics/SVG/1.1/DTD/svg11.dtd">
<!-- Creator: CorelDRAW 2018 (64-Bit) -->
<svg xmlns="http://www.w3.org/2000/svg" xml:space="preserve" width="471px" height="283px" version="1.1" style="shape-rendering:geometricPrecision; text-rendering:geometricPrecision; image-rendering:optimizeQuality; fill-rule:evenodd; clip-rule:evenodd"
viewBox="0 0 470.997 283.559"
 xmlns:xlink="http://www.w3.org/1999/xlink">
 <defs>
  <style type="text/css">
   <![CDATA[
    .fil0 {fill:#E85354}
    .fil1 {fill:#E85354;fill-rule:nonzero}
   ]]>
  </style>
 </defs>
 <g id="Layer_x0020_1">
  <metadata id="CorelCorpID_0Corel-Layer"/>
  <g id="_2636557117376">
   <path class="fil0" d="M173.959 146.073l2.52 -9.406c13.588,-50.71 -15.171,-96.002 -53.623,-108.303 -45.176,-14.451 -101.726,7.247 -113.821,73.199l-9.035 68.244 30.217 -4.172 13.836 51.636c12.466,46.525 61.355,47.919 78.703,37.903l42.437 28.385 -15.171 -48.15 54.154 -93.508 -30.217 4.172zm-72.434 42.575l1.557 -0.259 -3.657 13.646 -1.674 -6.248 -20.115 3.363 -10.687 -46.182 18.662 -2.471 -10.506 -39.101c-0.433,-1.842 -0.662,-3.762 -0.662,-5.736 0,-13.771 11.163,-24.934 24.933,-24.934 12.536,0 22.851,9.202 24.651,21.171l-29.684 4.269 7.745 31.438 54.142 -7.358c14.763,-43.037 -13.833,-85.966 -60.097,-87.572 -39.778,-1.379 -66.891,37.642 -59.903,63.724l29.006 109.813c3.967,15.148 17.749,26.325 34.14,26.325 19.489,0 29.488,-10.159 34.992,-30.7l16.789 -62.66 -63.577 8.652 -0.008 -0.031 -11.084 1.508 7.645 32.239 17.393 -2.897 -0.001 0.001z"/>
   <path class="fil1" d="M225.986 36.784l26.315 -3.171 0.596 6.594 0.023 0.227c0.218,2.865 -0.191,5.67 -1.228,8.416 -1.038,2.756 -2.64,5.257 -4.785,7.504 -2.156,2.246 -4.845,4.15 -8.055,5.724 -3.211,1.563 -6.87,2.599 -10.976,3.098 -4.767,0.569 -9.094,0.605 -12.992,0.107 -3.899,-0.498 -7.282,-1.519 -10.151,-3.086 -2.858,-1.556 -5.169,-3.635 -6.91,-6.26 -1.731,-2.615 -2.829,-5.775 -3.27,-9.461l-0.627 -5.122c-0.441,-3.707 -0.133,-7.052 0.935,-10.015 1.068,-2.973 2.799,-5.551 5.204,-7.745 2.405,-2.194 5.452,-3.993 9.129,-5.387 3.678,-1.404 7.91,-2.391 12.687,-2.971 3.772,-0.454 7.266,-0.472 10.493,-0.066 3.216,0.417 6.09,1.248 8.642,2.515 2.542,1.266 4.731,2.957 6.576,5.062 1.835,2.106 3.262,4.636 4.282,7.603l-19.626 2.368c-0.719,-1.919 -1.801,-3.338 -3.259,-4.289 -1.446,-0.94 -3.364,-1.26 -5.731,-0.981 -1.005,0.128 -2.095,0.429 -3.27,0.904 -1.175,0.485 -2.23,1.186 -3.174,2.092 -0.944,0.917 -1.693,2.048 -2.244,3.394 -0.551,1.357 -0.711,2.948 -0.491,4.796l0.686 5.664c0.232,1.88 0.774,3.422 1.66,4.616 0.876,1.193 1.878,2.105 3.019,2.744 1.142,0.64 2.335,1.052 3.57,1.247 1.235,0.185 2.317,0.23 3.268,0.114 1.437,-0.174 2.701,-0.455 3.769,-0.854 1.067,-0.398 1.972,-0.87 2.703,-1.428 0.731,-0.558 1.288,-1.19 1.693,-1.896 0.406,-0.707 0.67,-1.466 0.782,-2.289l-7.954 0.952 -1.289 -10.72z"/>
   <path id="1" class="fil1" d="M306.205 24.528c0.174,1.449 0.131,2.769 -0.141,3.961 -0.271,1.192 -0.727,2.278 -1.368,3.257 -0.63,0.979 -1.424,1.861 -2.369,2.659 -0.945,0.797 -2.01,1.52 -3.184,2.168 0.803,0.307 1.531,0.669 2.172,1.064 0.642,0.406 1.23,0.877 1.764,1.413 0.535,0.548 1.016,1.171 1.433,1.882 0.428,0.721 0.846,1.529 1.253,2.434l1.185 3.214c0.683,1.574 1.431,3.039 2.254,4.385 0.822,1.345 1.653,2.442 2.504,3.3l-21.409 2.578c-0.262,-0.246 -0.557,-0.568 -0.884,-0.976 -0.328,-0.409 -0.668,-0.871 -1.018,-1.409 -0.351,-0.527 -0.691,-1.12 -1.031,-1.777 -0.331,-0.646 -0.639,-1.325 -0.915,-2.037l-1.505 -4.066c-0.254,-0.668 -0.551,-1.229 -0.89,-1.691 -0.34,-0.462 -0.764,-0.827 -1.264,-1.093 -0.5,-0.266 -1.086,-0.456 -1.747,-0.57 -0.661,-0.113 -1.44,-0.161 -2.326,-0.132l-6.82 0.824 1.8 14.925 -20.22 2.439 -5.737 -47.595 33.956 -4.099c3.307,-0.396 6.379,-0.421 9.205,-0.087 2.826,0.345 5.31,1.06 7.439,2.167 2.13,1.108 3.862,2.586 5.186,4.436 1.335,1.85 2.154,4.093 2.479,6.73l0.198 1.696zm-20.799 0.529c-0.07,-0.67 -0.259,-1.22 -0.533,-1.661 -0.274,-0.431 -0.58,-0.774 -0.928,-1.009 -0.359,-0.246 -0.706,-0.416 -1.064,-0.5 -0.368,-0.084 -0.671,-0.114 -0.92,-0.079l-12.514 1.509 0.952 7.89 12.417 -1.498c0.27,-0.035 0.583,-0.124 0.917,-0.289 0.345,-0.155 0.657,-0.395 0.957,-0.722 0.29,-0.316 0.513,-0.74 0.671,-1.261 0.158,-0.52 0.196,-1.137 0.115,-1.872l-0.07 -0.508z"/>
   <polygon id="2" class="fil1" points="312.662,54.565 306.925,6.97 327.199,4.52 332.936,52.126 "/>
   <path id="3" class="fil1" d="M388.56 16.106c0.326,2.756 0.097,5.235 -0.696,7.459 -0.804,2.224 -2.032,4.149 -3.706,5.775 -1.674,1.626 -3.73,2.94 -6.144,3.956 -2.415,1.015 -5.082,1.697 -8,2.046l-15.562 1.881 1.486 12.288 -20.22 2.438 -5.737 -47.595 34.745 -4.192c3.123,-0.372 6.045,-0.374 8.774,0.014 2.718,0.389 5.126,1.126 7.201,2.245 2.087,1.108 3.775,2.554 5.088,4.339 1.313,1.796 2.109,3.91 2.411,6.363l0.36 2.983zm-20.764 0.788c-0.104,-0.865 -0.316,-1.545 -0.623,-2.062 -0.307,-0.516 -0.656,-0.903 -1.059,-1.17 -0.413,-0.256 -0.825,-0.415 -1.27,-0.465 -0.443,-0.051 -0.844,-0.058 -1.2,-0.012l-11.888 1.429 1.196 9.931 11.672 -1.405c0.248,-0.024 0.583,-0.145 0.992,-0.354 0.409,-0.209 0.807,-0.515 1.183,-0.908 0.375,-0.403 0.684,-0.903 0.928,-1.5 0.255,-0.608 0.325,-1.312 0.231,-2.133l-0.162 -1.351z"/>
   <polygon id="4" class="fil1" points="234.318,83.551 238.522,118.426 218.215,120.866 214.011,86.002 197.476,87.999 195.943,75.268 249.32,68.823 250.864,81.565 "/>
   <path id="5" class="fil1" d="M244.727 91.261c-0.441,-3.707 -0.133,-7.052 0.935,-10.014 1.068,-2.973 2.799,-5.551 5.204,-7.746 2.405,-2.194 5.452,-3.993 9.129,-5.387 3.678,-1.404 7.91,-2.391 12.687,-2.971 4.755,-0.57 9.093,-0.606 13.002,-0.097 3.909,0.509 7.304,1.552 10.173,3.129 2.869,1.577 5.169,3.679 6.911,6.293 1.742,2.625 2.838,5.754 3.269,9.407l0.626 5.122c0.43,3.621 0.111,6.912 -0.968,9.874 -1.079,2.962 -2.821,5.541 -5.236,7.745 -2.416,2.206 -5.463,4.027 -9.14,5.452 -3.677,1.437 -7.888,2.435 -12.643,3.015 -4.788,0.57 -9.125,0.616 -13.024,0.129 -3.887,-0.487 -7.271,-1.508 -10.129,-3.075 -2.847,-1.556 -5.147,-3.646 -6.889,-6.272 -1.742,-2.636 -2.839,-5.796 -3.28,-9.482l-0.627 -5.122zm32.405 11.048c0.94,-0.105 1.976,-0.395 3.109,-0.848 1.121,-0.453 2.154,-1.11 3.11,-1.973 0.945,-0.851 1.703,-1.928 2.255,-3.221 0.552,-1.291 0.724,-2.829 0.515,-4.601l-0.674 -5.534c-0.209,-1.805 -0.741,-3.271 -1.594,-4.4 -0.853,-1.14 -1.834,-1.997 -2.964,-2.594 -1.119,-0.607 -2.28,-0.987 -3.482,-1.15 -1.202,-0.163 -2.273,-0.187 -3.214,-0.071 -0.939,0.116 -1.976,0.395 -3.108,0.848 -1.122,0.453 -2.155,1.11 -3.099,1.951 -0.934,0.852 -1.683,1.929 -2.235,3.221 -0.563,1.302 -0.734,2.851 -0.513,4.623l0.694 5.533c0.151,1.2 0.441,2.236 0.87,3.12 0.44,0.883 0.965,1.647 1.587,2.28 0.622,0.633 1.308,1.157 2.068,1.551 0.761,0.394 1.532,0.702 2.312,0.922 0.781,0.21 1.55,0.345 2.297,0.392 0.747,0.048 1.439,0.032 2.066,-0.049z"/>
   <path id="6" class="fil1" d="M300.814 84.898c-0.441,-3.708 -0.133,-7.053 0.935,-10.015 1.068,-2.973 2.799,-5.551 5.204,-7.745 2.405,-2.195 5.452,-3.994 9.129,-5.387 3.678,-1.405 7.91,-2.392 12.687,-2.972 4.755,-0.569 9.093,-0.605 13.002,-0.096 3.909,0.508 7.304,1.551 10.173,3.129 2.869,1.577 5.169,3.679 6.911,6.292 1.742,2.626 2.838,5.754 3.268,9.407l0.627 5.123c0.43,3.62 0.111,6.911 -0.968,9.874 -1.079,2.962 -2.821,5.54 -5.236,7.745 -2.416,2.206 -5.463,4.026 -9.14,5.452 -3.677,1.437 -7.888,2.435 -12.643,3.015 -4.788,0.569 -9.125,0.616 -13.024,0.129 -3.887,-0.487 -7.271,-1.509 -10.129,-3.075 -2.847,-1.557 -5.147,-3.647 -6.889,-6.272 -1.742,-2.636 -2.839,-5.797 -3.28,-9.482l-0.627 -5.122zm32.405 11.047c0.94,-0.105 1.977,-0.395 3.109,-0.847 1.121,-0.453 2.154,-1.111 3.11,-1.973 0.945,-0.852 1.703,-1.929 2.255,-3.221 0.552,-1.292 0.724,-2.83 0.515,-4.602l-0.674 -5.533c-0.209,-1.805 -0.741,-3.272 -1.594,-4.401 -0.853,-1.14 -1.834,-1.997 -2.964,-2.593 -1.119,-0.608 -2.28,-0.987 -3.482,-1.151 -1.202,-0.163 -2.273,-0.187 -3.214,-0.071 -0.939,0.116 -1.976,0.395 -3.108,0.848 -1.121,0.453 -2.155,1.111 -3.099,1.952 -0.934,0.851 -1.683,1.928 -2.235,3.22 -0.562,1.303 -0.733,2.851 -0.513,4.624l0.694 5.533c0.151,1.199 0.441,2.235 0.87,3.119 0.44,0.883 0.966,1.647 1.587,2.28 0.622,0.633 1.308,1.158 2.068,1.552 0.761,0.394 1.532,0.701 2.312,0.922 0.781,0.21 1.55,0.344 2.297,0.392 0.747,0.048 1.439,0.032 2.066,-0.05z"/>
   <polygon id="7" class="fil1" points="402.059,99.819 378.603,78.593 379.14,80.698 382.119,102.222 362.818,104.545 357.08,56.95 375.442,54.733 399.75,77.033 399.213,74.928 396.095,52.247 415.396,49.924 421.144,97.519 "/>
   <path id="8" class="fil1" d="M470.203 77.508c0.638,5.198 -1.102,9.345 -5.241,12.43 -4.129,3.095 -10.635,5.172 -19.497,6.24 -4.398,0.534 -8.336,0.545 -11.802,0.033 -3.455,-0.502 -6.405,-1.408 -8.839,-2.729 -2.434,-1.311 -4.352,-2.95 -5.753,-4.929 -1.39,-1.979 -2.242,-4.19 -2.532,-6.621l19.237 -2.323c0.18,0.767 0.423,1.468 0.72,2.093 0.297,0.614 0.745,1.141 1.333,1.558 0.599,0.417 1.401,0.702 2.419,0.856 1.019,0.154 2.338,0.132 3.981,-0.065 1.426,-0.174 2.517,-0.4 3.294,-0.688 0.776,-0.276 1.337,-0.584 1.68,-0.911 0.343,-0.338 0.535,-0.664 0.576,-0.989 0.051,-0.325 0.06,-0.618 0.025,-0.888 -0.035,-0.313 -0.102,-0.604 -0.202,-0.853 -0.088,-0.258 -0.263,-0.484 -0.493,-0.699 -0.239,-0.203 -0.587,-0.373 -1.042,-0.521 -0.456,-0.148 -1.052,-0.273 -1.777,-0.375l-14.418 -1.038c-2.934,-0.203 -5.393,-0.67 -7.379,-1.389 -1.975,-0.73 -3.595,-1.669 -4.837,-2.805 -1.243,-1.137 -2.173,-2.449 -2.802,-3.937 -0.618,-1.487 -1.043,-3.085 -1.251,-4.803 -0.14,-1.243 -0.14,-2.487 0.034,-3.743 0.162,-1.246 0.563,-2.472 1.181,-3.666 0.628,-1.185 1.506,-2.328 2.655,-3.409 1.148,-1.091 2.601,-2.077 4.378,-2.989 1.766,-0.902 3.891,-1.698 6.374,-2.389 2.482,-0.691 5.377,-1.246 8.684,-1.641 4.506,-0.546 8.444,-0.567 11.791,-0.075 3.357,0.48 6.178,1.366 8.47,2.645 2.294,1.268 4.07,2.866 5.33,4.781 1.26,1.904 2.067,4.018 2.411,6.341l-17.865 2.149c-0.244,-0.691 -0.552,-1.316 -0.902,-1.865 -0.362,-0.548 -0.852,-0.998 -1.472,-1.339 -0.63,-0.341 -1.422,-0.562 -2.396,-0.662 -0.964,-0.112 -2.197,-0.079 -3.688,0.106 -0.983,0.116 -1.772,0.296 -2.376,0.539 -0.593,0.243 -1.056,0.506 -1.367,0.801 -0.311,0.295 -0.514,0.61 -0.609,0.935 -0.083,0.336 -0.114,0.639 -0.079,0.931 0.046,0.335 0.125,0.648 0.257,0.928 0.132,0.28 0.361,0.538 0.688,0.752 0.315,0.214 0.771,0.404 1.335,0.551 0.574,0.158 1.311,0.282 2.21,0.361l10.759 0.809c3.442,0.22 6.323,0.629 8.611,1.238 2.299,0.608 4.166,1.426 5.591,2.452 1.437,1.027 2.496,2.273 3.201,3.728 0.693,1.466 1.162,3.149 1.394,5.084z"/>
  </g>
 </g>
</svg>
